<svg xmlns="http://www.w3.org/2000/svg" xmlns:xlink="http://www.w3.org/1999/xlink" width="300" height="300" xmlns:v="https://vecta.io/nano"><defs><radialGradient cx="40.1502879%" cy="29.7298743%" fx="40.1502879%" fy="29.7298743%" r="60.318603%" id="A"><stop stop-color="#ffe030" offset="0%"/><stop stop-color="#f93" offset="100%"/></radialGradient><radialGradient cx="40.1502879%" cy="29.7298743%" fx="40.1502879%" fy="29.7298743%" r="47.4552741%" id="B"><stop stop-color="#ffea5f" offset="0%"/><stop stop-color="#ffbc47" stop-opacity="0" offset="100%"/></radialGradient><linearGradient x1="49.4965244%" y1="53.6620859%" x2="52.731844%" y2="45.4896403%" id="C"><stop stop-color="#3c2200" offset=".132565%"/><stop stop-color="#7a4400" offset="100%"/></linearGradient><linearGradient x1="50.4244148%" y1="53.6597524%" x2="47.1891052%" y2="45.4873573%" id="D"><stop stop-color="#3c2200" offset=".132565%"/><stop stop-color="#7a4400" offset="100%"/></linearGradient><radialGradient cx="12.4430662%" cy="17.6469951%" fx="12.4430662%" fy="17.6469951%" r="38.3645648%" id="E"><stop stop-color="#eb672a" stop-opacity=".5" offset="0%"/><stop stop-color="#e36521" stop-opacity=".342" offset="30.25%"/><stop stop-color="#cc600a" stop-opacity=".09" offset="78.68%"/><stop stop-color="#c25e00" stop-opacity="0" offset="95.89%"/></radialGradient><radialGradient cx="22.7270028%" cy="62.4321355%" fx="22.7270028%" fy="62.4321355%" r="21.031186%" id="F"><stop stop-color="#ff4c00" offset="0%"/><stop stop-color="#f94c0e" stop-opacity=".801" offset="19.95%"/><stop stop-color="#ec4a2e" stop-opacity=".286" offset="71.45%"/><stop stop-color="#e74a3a" stop-opacity="0" offset="100%"/></radialGradient><radialGradient cx="76.7664375%" cy="77.8766565%" fx="76.7664375%" fy="77.8766565%" r="33.4390772%" id="G"><stop stop-color="#7a4400" stop-opacity=".5" offset="0%"/><stop stop-color="#894d00" stop-opacity=".207" offset="58.33%"/><stop stop-color="#975500" stop-opacity="0" offset="99.5%"/></radialGradient><radialGradient cx="65.8736551%" cy="59.478022%" fx="65.8736551%" fy="59.478022%" r="51.7591767%" id="H"><stop stop-color="#fff" stop-opacity=".75" offset="0%"/><stop stop-color="#fff" stop-opacity="0" offset="100%"/></radialGradient><linearGradient x1="-0.280515737%" y1="49.8657651%" x2="99.9150732%" y2="49.8657651%" id="I"><stop stop-color="#3c2200" offset=".132565%"/><stop stop-color="#512d00" offset="100%"/></linearGradient><linearGradient x1="50.0071961%" y1="50.1458234%" x2="54.4851635%" y2="61.870717%" id="J"><stop stop-color="#ff40bf" offset="0%"/><stop stop-color="#7000a3" offset="89.32%"/></linearGradient><linearGradient x1="41.6770335%" y1="22.498844%" x2="52.1758979%" y2="74.7751784%" id="K"><stop stop-color="#d1f2ff" offset="25.44%"/><stop stop-color="#17bbfe" offset="100%"/></linearGradient><linearGradient x1="57.7904629%" y1="50.6974111%" x2="106.210546%" y2="42.7633427%" id="L"><stop stop-color="#7000a3" stop-opacity="0" offset="0%"/><stop stop-color="#530078" stop-opacity=".224" offset="22.42%"/><stop stop-color="#260038" stop-opacity=".593" offset="59.25%"/><stop stop-color="#0b000f" stop-opacity=".861" offset="86.13%"/><stop offset="100%"/></linearGradient><linearGradient x1="64.6011481%" y1="139.490781%" x2="44.8871066%" y2="42.8451894%" id="M"><stop offset="0%"/><stop stop-color="#27002d" offset="14.88%"/><stop stop-color="#760086" offset="46.31%"/><stop stop-color="#b000c7" offset="71.93%"/><stop stop-color="#d300f0" offset="90.45%"/><stop stop-color="#e100ff" offset="100%"/></linearGradient><linearGradient x1="60.357309%" y1="-30.818674%" x2="39.2002697%" y2="173.266565%" id="N"><stop offset="0%"/><stop stop-color="#27002d" offset="14.88%"/><stop stop-color="#760086" offset="46.31%"/><stop stop-color="#b000c7" offset="71.93%"/><stop stop-color="#d300f0" offset="90.45%"/><stop stop-color="#e100ff" offset="100%"/></linearGradient><linearGradient x1="59.9386634%" y1="76.2809341%" x2="50.2351766%" y2="46.6635741%" id="O"><stop stop-color="#7000a3" offset="0%"/><stop stop-color="#a900d2" offset="44.69%"/><stop stop-color="#d200f2" offset="81.17%"/><stop stop-color="#e100ff" offset="100%"/></linearGradient><linearGradient x1="44.6067725%" y1="47.5744969%" x2="52.8326566%" y2="51.9060398%" id="P"><stop stop-color="#3c2200" offset=".132565%"/><stop stop-color="#512d00" offset="100%"/></linearGradient><radialGradient cx="42.7193796%" cy="55.6481212%" fx="42.7193796%" fy="55.6481212%" r="96.4063026%" gradientTransform="translate(0.427194,0.556481),scale(0.381780,1.000000),rotate(-8.286920),translate(-0.427194,-0.556481)" id="Q"><stop stop-color="#fff" stop-opacity=".5" offset="0%"/><stop stop-color="#fff" stop-opacity="0" offset="100%"/></radialGradient><radialGradient cx="81.8899642%" cy="26.2725284%" fx="81.8899642%" fy="26.2725284%" r="48.4684942%" gradientTransform="translate(0.818900,0.262725),scale(1.000000,0.716073),rotate(77.717600),translate(-0.818900,-0.262725)" id="R"><stop stop-color="#fff" stop-opacity=".5" offset="0%"/><stop stop-color="#fff" stop-opacity="0" offset="100%"/></radialGradient><linearGradient x1="75.217193%" y1="14.409808%" x2="14.4954407%" y2="61.0225909%" id="S"><stop stop-color="#d1f2ff" offset="25.44%"/><stop stop-color="#17bbfe" offset="100%"/></linearGradient><linearGradient x1="84.917893%" y1="8.65629%" x2="10.2443722%" y2="81.8774243%" id="T"><stop stop-color="#ff40bf" offset="0%"/><stop stop-color="#7000a3" offset="74.56%"/></linearGradient><linearGradient x1="85.3944067%" y1="7.73468051%" x2="6.342943%" y2="80.7351273%" id="U"><stop stop-color="#ff40bf" offset="0%"/><stop stop-color="#7000a3" offset="74.56%"/></linearGradient><linearGradient x1="80.9753816%" y1="10.6977724%" x2="12.8674418%" y2="76.543802%" id="V"><stop stop-color="#ff40bf" offset="0%"/><stop stop-color="#7000a3" offset="74.56%"/></linearGradient><radialGradient cx="24.7979067%" cy="48.7059023%" fx="24.7979067%" fy="48.7059023%" r="52.0719907%" gradientTransform="translate(0.247979,0.487059),scale(1.000000,0.913941),rotate(65.302100),translate(-0.247979,-0.487059)" id="W"><stop stop-color="#440063" stop-opacity=".75" offset="0%"/><stop stop-color="#420061" stop-opacity="0" offset="100%"/></radialGradient><radialGradient cx="47.606855%" cy="27.048685%" fx="47.606855%" fy="27.048685%" r="52.0711672%" gradientTransform="translate(0.476069,0.270487),scale(1.000000,0.913941),rotate(31.201800),translate(-0.476069,-0.270487)" id="X"><stop stop-color="#fff" stop-opacity=".5" offset="0%"/><stop stop-color="#fff" stop-opacity="0" offset="100%"/></radialGradient><radialGradient cx="64.4537724%" cy="88.7724881%" fx="64.4537724%" fy="88.7724881%" r="64.2551978%" gradientTransform="translate(0.644538,0.887725),scale(1.000000,0.913941),rotate(30.200400),translate(-0.644538,-0.887725)" id="Y"><stop stop-color="#440063" stop-opacity=".75" offset="0%"/><stop stop-color="#420061" stop-opacity="0" offset="100%"/></radialGradient><radialGradient cx="50.5096352%" cy="53.0431153%" fx="50.5096352%" fy="53.0431153%" r="69.5139879%" gradientTransform="translate(0.505096,0.530431),scale(0.557346,1.000000),rotate(175.474000),translate(-0.505096,-0.530431)" id="Z"><stop stop-color="#7a4400" offset=".132565%"/><stop stop-color="#643800" offset="100%"/></radialGradient><linearGradient x1="54.3991667%" y1="30.3920246%" x2="51.2883333%" y2="50.0247104%" id="a"><stop stop-color="#3c2200" offset=".132565%"/><stop stop-color="#512d00" offset="100%"/></linearGradient><radialGradient cx="49.3470406%" cy="53.0416368%" fx="49.3470406%" fy="53.0416368%" r="69.5139879%" gradientTransform="translate(0.493470,0.530416),scale(0.557347,1.000000),rotate(4.525570),translate(-0.493470,-0.530416)" id="b"><stop stop-color="#7a4400" offset=".132565%"/><stop stop-color="#643800" offset="100%"/></radialGradient><linearGradient x1="45.6208333%" y1="30.3920246%" x2="48.7308333%" y2="50.0243268%" id="c"><stop stop-color="#3c2200" offset=".132565%"/><stop stop-color="#512d00" offset="100%"/></linearGradient><linearGradient x1="47.2526427%" y1="26.1795786%" x2="52.9635013%" y2="123.598304%" id="d"><stop stop-color="#ff40bf" offset="0%"/><stop stop-color="#7000a3" offset="89.32%"/></linearGradient><radialGradient cx="280.557788%" cy="-176.678547%" fx="280.557788%" fy="-176.678547%" r="1886.24352%" gradientTransform="translate(2.805578,-1.766785),scale(1.000000,0.583994),translate(-2.805578,1.766785)" id="e"><stop stop-color="#7a4400" stop-opacity=".5" offset="0%"/><stop stop-color="#894d00" stop-opacity=".207" offset="58.33%"/><stop stop-color="#975500" stop-opacity="0" offset="99.5%"/></radialGradient><radialGradient cx="-427.132742%" cy="-133.486541%" fx="-427.132742%" fy="-133.486541%" r="1657.75428%" gradientTransform="translate(-4.271327,-1.334865),scale(0.682776,1.000000),rotate(0.041993),translate(4.271327,1.334865)" id="f"><stop stop-color="#7a4400" stop-opacity=".5" offset="0%"/><stop stop-color="#894d00" stop-opacity=".207" offset="58.33%"/><stop stop-color="#975500" stop-opacity="0" offset="99.5%"/></radialGradient><radialGradient cx="-174.447788%" cy="35.3799859%" fx="-174.447788%" fy="35.3799859%" r="4392.82284%" id="g"><stop stop-color="#7a4400" stop-opacity=".5" offset="0%"/><stop stop-color="#894d00" stop-opacity=".207" offset="58.33%"/><stop stop-color="#975500" stop-opacity="0" offset="99.5%"/></radialGradient><radialGradient cx="-1457.37883%" cy="57.3276138%" fx="-1457.37883%" fy="57.3276138%" r="4392.82284%" id="h"><stop stop-color="#7a4400" stop-opacity=".5" offset="0%"/><stop stop-color="#894d00" stop-opacity=".207" offset="58.33%"/><stop stop-color="#975500" stop-opacity="0" offset="99.5%"/></radialGradient><radialGradient cx="-2359.81817%" cy="-1142.59923%" fx="-2359.81817%" fy="-1142.59923%" r="4392.82284%" gradientTransform="translate(-23.598182,-11.425992),scale(1.000000,0.999936),translate(23.598182,11.425992)" id="i"><stop stop-color="#7a4400" stop-opacity=".5" offset="0%"/><stop stop-color="#894d00" stop-opacity=".207" offset="58.33%"/><stop stop-color="#975500" stop-opacity="0" offset="99.5%"/></radialGradient><radialGradient cx="292.63077%" cy="-1797.55426%" fx="292.63077%" fy="-1797.55426%" r="4392.82284%" id="j"><stop stop-color="#7a4400" stop-opacity=".5" offset="0%"/><stop stop-color="#894d00" stop-opacity=".207" offset="58.33%"/><stop stop-color="#975500" stop-opacity="0" offset="99.5%"/></radialGradient><radialGradient cx="-1607.27913%" cy="-2895.12133%" fx="-1607.27913%" fy="-2895.12133%" r="4392.84205%" gradientTransform="translate(-16.072791,-28.951213),scale(0.999936,1.000000),translate(16.072791,28.951213)" id="k"><stop stop-color="#7a4400" stop-opacity=".5" offset="0%"/><stop stop-color="#894d00" stop-opacity=".207" offset="58.33%"/><stop stop-color="#975500" stop-opacity="0" offset="99.5%"/></radialGradient><radialGradient cx="-1296.40182%" cy="-1876.20206%" fx="-1296.40182%" fy="-1876.20206%" r="4392.82284%" id="l"><stop stop-color="#7a4400" stop-opacity=".5" offset="0%"/><stop stop-color="#894d00" stop-opacity=".207" offset="58.33%"/><stop stop-color="#975500" stop-opacity="0" offset="99.5%"/></radialGradient><radialGradient cx="-185.721868%" cy="129.355851%" fx="-185.721868%" fy="129.355851%" r="1362.2219%" gradientTransform="translate(-1.857219,1.293559),scale(1.000000,0.714850),rotate(-28.568400),translate(1.857219,-1.293559)" id="m"><stop stop-color="#7a4400" stop-opacity=".5" offset="0%"/><stop stop-color="#894d00" stop-opacity=".207" offset="58.33%"/><stop stop-color="#975500" stop-opacity="0" offset="99.5%"/></radialGradient><linearGradient x1="59.811125%" y1="78.4221173%" x2="39.2454616%" y2="19.6930289%" id="n"><stop stop-color="#ff9214" offset="0%"/><stop stop-color="#ff4e0d" offset="100%"/></linearGradient><linearGradient x1="156.417625%" y1="64.8399249%" x2="2.09273001%" y2="45.0336576%" id="o"><stop stop-color="#80dafe" offset="0%"/><stop stop-color="#008ee6" offset="100%"/></linearGradient><linearGradient x1="-243.697585%" y1="-5.92189501%" x2="334.933742%" y2="108.066581%" id="p"><stop stop-color="#ffcb4b" offset="0%"/><stop stop-color="#e81ca2" offset="100%"/></linearGradient><linearGradient x1="341.878481%" y1="43.6711697%" x2="-259.389205%" y2="58.448044%" id="q"><stop stop-color="#fbe07a" offset="0%"/><stop stop-color="#e81ca2" offset="100%"/></linearGradient><linearGradient x1="30.132514%" y1="-181.882202%" x2="50.4513155%" y2="62.0038412%" id="r"><stop stop-color="#80dafe" offset="0%"/><stop stop-color="#008ee6" offset="100%"/></linearGradient><linearGradient x1="133.337602%" y1="141.001345%" x2="-68.9352711%" y2="-78.5005442%" id="s"><stop stop-color="#ffcb4b" offset="0%"/><stop stop-color="#e81ca2" offset="100%"/></linearGradient><linearGradient x1="-51.4693642%" y1="32.8702222%" x2="90.6524105%" y2="59.606889%" id="t"><stop stop-color="#9f00e8" offset="25.44%"/><stop stop-color="#7000a3" offset="100%"/></linearGradient><linearGradient x1="-109.827774%" y1="259.632499%" x2="162.532813%" y2="-98.0920674%" id="u"><stop stop-color="#80dafe" offset="0%"/><stop stop-color="#008ee6" offset="100%"/></linearGradient><linearGradient x1="-20.0640246%" y1="27.6778283%" x2="305.819835%" y2="144.356233%" id="v"><stop stop-color="#ff9214" offset="0%"/><stop stop-color="#ff4e0d" offset="100%"/></linearGradient><linearGradient x1="158.732937%" y1="-51.8179115%" x2="10.1488969%" y2="93.4518683%" id="w"><stop stop-color="#fbe07a" offset="0%"/><stop stop-color="#e81ca2" offset="100%"/></linearGradient><radialGradient cx="-109.516807%" cy="-9.19206849%" fx="-109.516807%" fy="-9.19206849%" r="275.673427%" gradientTransform="translate(-1.095168,-0.091921),scale(1.000000,0.819539),translate(1.095168,0.091921)" id="x"><stop stop-color="#7a4400" stop-opacity=".5" offset="0%"/><stop stop-color="#894d00" stop-opacity=".207" offset="58.33%"/><stop stop-color="#975500" stop-opacity="0" offset="99.5%"/></radialGradient><linearGradient x1="68.0310845%" y1="-34.5979723%" x2="23.9924391%" y2="185.328962%" id="y"><stop stop-color="#f78174" offset="0%"/><stop stop-color="#8800c7" offset="38.93%"/><stop stop-color="#3640ff" offset="100%"/></linearGradient><path id="z" d="M85.289 150c37.943 0 68.701-30.758 68.701-68.701s-30.758-68.701-68.701-68.701-68.701 30.758-68.701 68.701S47.347 150 85.289 150z"/><path id="AA" d="M147.721 94.181c.257 2.362-1.288 6.57-3.736 9.317-1.846 2.104-4.423 2.92-6.999 2.448-.515-.086-.987-.215-1.503-.429-3.306-1.374-6.441-3.779-9.79-3.263l-21.254 3.091c-2.834.429-5.582 1.159-8.244 2.233l-11.164 5.797.601 4.036 12.323 2.362c2.877.3 5.711.215 8.544-.172l25.376-3.693 7.471-1.546 11.507-8.673c2.276-1.932 2.233-6.183-.086-8.373l-3.048-3.135z"/><path id="AB" d="M131.92 115.907c14.298-2.061 28.425-5.668 25.376-24.475-2.19-13.654-22.972-14.899-24.131-5.324 1.503-1.632 3.692-4.938 5.281-4.981 7.428-.258 9.704 8.287 9.833 12.881.258 11.507-9.275 20.868-16.359 21.898z"/><path id="AC" d="M54.245 25.136a.86.86 0 0 0 .043-1.546l-6.312-3.306L10.191.661c-.773-.386-3.864-1.76-7.342 1.159C-.845 5.041.014 7.489.272 8.261l19.623 50.796c.429 1.159 2.061 1.117 2.49-.043 4.809-13.654 24.26-30.357 31.86-33.878z"/><path id="AD" d="M38.207 7.857a1.76 1.76 0 1 0 0-3.521 1.76 1.76 0 1 0 0 3.521z"/></defs><g fill="none"><g fill="#31434b"><rect x="138" y="100" width="37.5" height="37" rx=".5"/><rect x="225.5" y="100" width="37.5" height="37" rx=".5"/></g><path d="M293.749 162H106.251c-3.452 0-6.251 2.808-6.251 6.273v119.181c-.033 3.338 1.273 6.548 3.625 8.908s5.551 3.671 8.876 3.638h174.999c3.325.033 6.524-1.278 8.876-3.638s3.658-5.571 3.625-8.908V168.273c0-3.464-2.799-6.273-6.251-6.273z" fill="#eceff1"/><path d="M287.499 126.001H112.501c-3.325-.033-6.524 1.247-8.876 3.551s-3.658 5.44-3.625 8.698v30.625c0 3.383 2.799 6.125 6.251 6.125h187.499c3.452 0 6.251-2.742 6.251-6.125V138.25c.033-3.259-1.273-6.394-3.625-8.698s-5.551-3.584-8.876-3.551z" fill="#c03"/><path d="M179.833 263h-24.667c-3.406 0-6.167-2.821-6.167-6.3v-18.9c0-6.959 5.522-12.6 12.333-12.6h12.333v-12.6h-18.5c-3.406 0-6.167-2.821-6.167-6.3s2.761-6.3 6.167-6.3h18.5c6.812 0 12.333 5.641 12.333 12.6v12.6c0 6.959-5.522 12.6-12.333 12.6h-12.333v12.6h18.5c3.406 0 6.167 2.821 6.167 6.3s-2.761 6.3-6.167 6.3zm52.667 0h-12.333c-3.406 0-6.167-2.821-6.167-6.3s2.761-6.3 6.167-6.3H232.5c3.406 0 6.167-2.821 6.167-6.3s-2.761-6.3-6.167-6.3h-12.333c-3.406 0-6.167-2.821-6.167-6.3v-25.2c0-3.479 2.761-6.3 6.167-6.3h24.667c3.406 0 6.167 2.821 6.167 6.3s-2.761 6.3-6.167 6.3h-18.5v12.6h6.167c10.217 0 18.5 8.462 18.5 18.9s-8.283 18.9-18.5 18.9z" fill="#31434b"/><use xlink:href="#z" fill="url(#A)"/><use xlink:href="#z" fill="url(#B)" opacity=".5"/><path d="M70.304 56.223c.387-2.748-2.362-4.852-7.428-5.496-4.337-.558-14.084.515-21.769 8.029-1.417 1.374.344 2.49 1.632 1.632 4.465-2.877 15.801-5.797 24.045-3.779 3.349.859 3.521-.386 3.521-.386z" fill="url(#C)"/><path d="M100.275 56.223c-.386-2.748 2.362-4.852 7.428-5.496 4.337-.558 14.084.515 21.77 8.029 1.417 1.374-.344 2.49-1.632 1.632-4.466-2.877-15.801-5.797-24.045-3.779-3.392.859-3.521-.386-3.521-.386z" fill="url(#D)"/><use xlink:href="#z" fill="url(#E)"/><use xlink:href="#z" fill="url(#F)" opacity=".5"/><use xlink:href="#z" fill="url(#G)" opacity=".75"/><path d="M71.463 129.475c8.656 0 15.672-7.017 15.672-15.672s-7.017-15.672-15.672-15.672-15.672 7.017-15.672 15.672 7.017 15.672 15.672 15.672z" fill="url(#H)" opacity=".4"/><path d="M86.706 121.789c2.419 0 4.38-2.538 4.38-5.668s-1.961-5.668-4.38-5.668-4.38 2.537-4.38 5.668 1.961 5.668 4.38 5.668z" fill="url(#I)"/><path d="M147.721 94.181c.257 2.362-1.288 6.57-3.736 9.317-1.846 2.104-4.423 2.92-6.999 2.448a6.6 6.6 0 0 1-1.503-.429c-3.306-1.374-6.441-3.779-9.79-3.263l-21.254 3.091c-2.834.429-5.582 1.159-8.244 2.233l-11.164 5.797.601 4.036 12.323 2.362c2.877.3 5.711.215 8.544-.172l26.75-3.907 7.686-2.49 9.962-7.557c2.276-1.932 2.233-6.183-.086-8.373l-3.091-3.091z" fill="url(#J)"/><path d="M102.807 105.645c-2.233.429-4.423 1.073-6.569 1.975l-11.164 5.797.601 4.036 12.323 2.362a36.28 36.28 0 0 0 6.827 0c-1.117-.215-2.405-3.135-2.92-6.784-.515-3.736-.129-6.87.902-7.385z" fill="url(#K)"/><use xlink:href="#AA" fill="url(#L)"/><use xlink:href="#AB" fill="url(#M)"/><path d="M145.273 87.911c1.975.644 2.49 3.779 2.447 6.226 0 0 .558 1.417.172 2.018l.301-.558.043-1.632c-.129-4.594-2.49-13.225-9.833-12.881-6.698.344-6.183 10.047-4.337 12.752l1.031 1.675 7.944-1.46c-1.031-5.238.644-6.655 2.233-6.14z" fill="url(#N)"/><path d="M132.95 89.758c.344 2.705 1.46 5.281 2.619 5.11s1.632-2.791 1.417-4.337l10.005 1.503c.215 1.417-.215 3.821-1.288 3.993l-10.004-.172c-2.319-.043-2.748-4.895-2.748-6.097z" fill="url(#O)"/><path d="M86.792 115.95c-1.331 10.047-9.446 12.237-7.815 9.36 2.147-3.907 2.662-6.483 3.135-9.962s.644-6.097-.387-10.434c-.816-3.22 6.398.988 5.067 11.035z" fill="#643800"/><path d="M81.682 104.915c1.073 4.337.859 6.956.386 10.434s-.988 6.054-3.135 9.962c-.558 1.03.043 1.417 1.159 1.073-.043 0-1.116-.301-.129-1.632 1.503-1.975 3.821-4.895 4.38-9.06.558-4.208-.902-7.6-1.846-9.919-.558-1.546.558-1.546.558-1.546-.945-.644-1.632-.429-1.374.687z" fill="url(#P)"/><use xlink:href="#AA" fill="url(#Q)" opacity=".75"/><use xlink:href="#AB" fill="url(#R)" opacity=".75"/><use xlink:href="#AC" fill="url(#S)"/><path d="M48.019 20.284l-7.815-4.036C37.37 14.96 13.583 32.95 14.184 44.114l4.551 11.765c-5.453-13.998 25.462-37.571 29.284-35.596z" fill="url(#T)"/><path d="M32.261 12.169l-1.76-.945-6.054-3.134C21.913 7.875 7.743 18.739 7.185 26.081l3.779 9.704c-.859-10.176 18.721-24.99 21.297-23.616z" fill="url(#U)"/><path d="M10.663.962C8.43 1.777 2.633 6.2 1.002 10.064l3.95 10.262C2.547 14.058 15.085 4.611 17.748 4.611L10.663.962z" fill="url(#V)"/><use xlink:href="#AC" fill="url(#W)" opacity=".75"/><use xlink:href="#AC" fill="url(#X)" opacity=".75"/><use xlink:href="#AC" fill="url(#Y)" opacity=".75"/><path d="M66.697 70.221c-4.766-2.963-10.906-2.619-15.372.73-2.276 1.718-4.508 4.337-5.839 8.416-.215.687-.387 1.417-.429 2.147-.086 1.46.945 2.791 2.576 1.245 12.71-11.98 21.598.344 21.598.344 1.718 1.245 3.478-1.331 3.135-3.736-.086-.687-.172-1.417-.386-2.061-.988-3.478-3.092-5.668-5.281-7.085z" fill="url(#Z)"/><path d="M71.978 77.306c-.472-1.46-1.073-2.662-1.718-3.693-1.03-1.46-2.276-2.533-3.564-3.349-4.766-2.963-10.906-2.619-15.372.73-2.276 1.718-4.508 4.337-5.84 8.416-.129.386-.215.816-.3 1.245v.043c5.582-8.716 13.654-9.317 13.654-9.317s7.987-.687 13.397 7.128c-.086-.429-.129-.816-.258-1.202z" fill="url(#a)"/><path d="M103.881 70.221c4.766-2.963 10.906-2.619 15.372.73 2.276 1.718 4.508 4.337 5.84 8.416.215.687.386 1.417.429 2.147.086 1.46-.945 2.791-2.576 1.245-12.71-11.98-21.598.344-21.598.344-1.718 1.245-3.478-1.331-3.134-3.736.086-.687.172-1.417.386-2.061.945-3.478 3.049-5.668 5.281-7.085z" fill="url(#b)"/><path d="M98.557 77.306c.472-1.46 1.073-2.662 1.718-3.693 1.031-1.46 2.276-2.533 3.564-3.349 4.766-2.963 10.906-2.619 15.372.73 2.276 1.718 4.508 4.337 5.84 8.416.129.386.215.816.3 1.245v.043c-5.582-8.716-13.654-9.317-13.654-9.317s-7.987-.687-13.397 7.128l.258-1.202z" fill="url(#c)"/><path d="M101.348 119.943c-1.073-.3-2.19-3.091-2.705-6.526-.472-3.263-.172-6.097.644-6.87-1.03.3-2.061.687-3.049 1.073l-.129.043c-.644.945-.988 3.306-.601 6.14.386 2.748 1.417 5.024 2.276 5.926l.215.043c1.116.129 2.233.172 3.349.172z" fill="url(#d)"/><g opacity=".25" transform="translate(28.747 24.32)"><path d="M1.924 38.644c2.233 6.441-3.392 8.115-1.546 12.28l6.269-1.632c-1.846-4.165 3.049-5.754 1.073-12.409l-5.797 1.76z" fill="url(#e)"/><path d="M108.024 17.82c-8.588 4.852-10.778-5.153-16.574-2.92l1.803 8.63c5.754-2.19 8.201 7.171 16.789 2.319l-2.018-8.029z" fill="url(#f)"/><use xlink:href="#AD" fill="url(#g)"/><use xlink:href="#AD" x="45.171" y="-0.772" fill="url(#h)"/><path d="M115.152 49.335a1.76 1.76 0 1 0 0-3.521 1.76 1.76 0 1 0 0 3.521z" fill="url(#i)"/><use xlink:href="#AD" x="-33.234" y="66.898" fill="url(#j)"/><path d="M88.659 111.038a1.76 1.76 0 1 0 0-3.521 1.76 1.76 0 1 0 0 3.521z" fill="url(#k)"/><path d="M83.292 68.185a1.76 1.76 0 1 0 0-3.521 1.76 1.76 0 0 0 0 3.521z" fill="url(#l)"/><path d="M65.73 8.759L64.957 0c-10.82 6.784-14.942 15.028-14.942 15.028l3.22 6.956c3.392-6.441 9.017-10.906 12.495-13.225z" fill="url(#m)"/></g><path d="M29.727 59.186c2.233 6.441-3.392 8.115-1.546 12.28l6.269-1.632c-1.846-4.165 3.049-5.754 1.073-12.409l-5.797 1.761z" fill="url(#n)"/><path d="M136.772 38.662c-8.588 4.852-10.778-5.153-16.574-2.92l1.803 8.631c5.754-2.19 8.201 7.171 16.789 2.318l-2.018-8.029z" fill="url(#o)"/><use xlink:href="#AD" x="101.742" y="20.972" fill="url(#p)"/><use xlink:href="#AD" x="28.748" y="21.745" fill="url(#q)"/><use xlink:href="#AD" x="73.918" y="20.972" fill="url(#r)"/><path d="M143.9 71.08a1.76 1.76 0 0 0 0-3.521 1.76 1.76 0 1 0 0 3.521z" fill="url(#s)"/><path d="M33.334 97.058a1.76 1.76 0 0 0 0-3.521 1.76 1.76 0 1 0 0 3.521z" fill="url(#t)"/><path d="M111.825 90.102a1.76 1.76 0 0 0 0-3.521 1.76 1.76 0 1 0 0 3.521z" fill="url(#u)"/><use xlink:href="#AD" x="-18.828" y="114.362" fill="url(#v)"/><path d="M95.38 26.94l-.773-8.759c-10.82 6.784-14.942 15.028-14.942 15.028l3.22 6.956c3.392-6.398 9.017-10.906 12.495-13.225z" fill="url(#w)"/><path d="M61.459 109.723c.988 19.065-14.599 24.003-19.279 25.076 2.447 1.975 5.024 3.779 7.772 5.41 8.502-3.564 22.499-12.538 17.776-32.332-2.319.601-4.423 1.202-6.269 1.846z" fill="url(#x)"/><path d="M56.993 106.46c1.159 22.414-20.61 25.333-20.61 25.333l3.049 7.171s30.443-6.484 23.831-34.308c-2.318.558-4.423 1.159-6.269 1.803z" fill="url(#y)"/><path d="M195.22 62.326l2.793-10.423c6.679.981 12.367.129 17.063-2.556s7.823-6.935 9.382-12.752c.716-2.673.963-5.26.741-7.763s-.954-4.898-2.195-7.185c-1.195-2.207-2.94-4.183-5.236-5.927s-5.111-3.063-8.444-3.956a21.73 21.73 0 0 0-7.012-.716c-2.348.146-4.285.554-5.812 1.223-1.781.736-3.18 1.617-4.196 2.642s-1.693 2.167-2.03 3.424c-.413 1.541-.414 2.99-.002 4.347s1.466 2.263 3.164 2.718c1.918.514 3.509.426 4.772-.263s2.051-1.616 2.362-2.779c.202-.755.359-1.875.471-3.362l.235-3.425c.604-.243 1.506-.431 2.704-.564s2.521-.007 3.967.381c3.836 1.028 6.415 3.067 7.738 6.117s1.352 6.934.088 11.65c-.792 2.956-1.857 5.139-3.196 6.549s-2.965 2.483-4.881 3.217c-1.836.688-3.793 1.014-5.873.979a37.29 37.29 0 0 1-6.155-.613h0l-4.79 17.875 4.339 1.163zm-7.045 18.181c1.761.472 3.444.257 5.051-.643a6.27 6.27 0 0 0 3.117-3.992c.472-1.761.242-3.449-.691-5.063s-2.279-2.658-4.04-3.13-3.449-.242-5.063.691-2.658 2.279-3.13 4.04a6.27 6.27 0 0 0 .703 5.016c.941 1.583 2.291 2.611 4.052 3.083zM47.789 215.729l-2.793-10.423c6.275-2.49 10.775-6.072 13.499-10.745s3.307-9.918 1.749-15.735c-.716-2.673-1.796-5.037-3.24-7.093s-3.275-3.765-5.493-5.125c-2.138-1.314-4.638-2.153-7.498-2.515s-5.957-.097-9.29.796a21.68 21.68 0 0 0-6.43 2.886c-1.96 1.301-3.434 2.622-4.422 3.965-1.175 1.528-1.945 2.99-2.313 4.386s-.383 2.723-.046 3.98c.413 1.541 1.137 2.796 2.172 3.765s2.401 1.227 4.099.772c1.918-.514 3.252-1.385 4.001-2.614s.968-2.425.656-3.588c-.202-.755-.627-1.804-1.273-3.147l-1.509-3.084c.402-.512 1.088-1.126 2.06-1.841s2.18-1.266 3.626-1.654c3.836-1.028 7.089-.552 9.76 1.429s4.638 5.329 5.902 10.045c.792 2.956.961 5.379.507 7.27s-1.327 3.633-2.618 5.226c-1.246 1.513-2.778 2.775-4.597 3.785a37.29 37.29 0 0 1-5.636 2.547h0l4.79 17.875 4.339-1.163zm2.989 19.268c1.761-.472 3.112-1.499 4.052-3.083a6.27 6.27 0 0 0 .703-5.016c-.472-1.761-1.515-3.107-3.13-4.04s-3.302-1.162-5.063-.691-3.107 1.515-4.04 3.13-1.162 3.302-.691 5.063a6.27 6.27 0 0 0 3.117 3.992 6.51 6.51 0 0 0 5.051.643z" fill="#31434b"/></g></svg>