<svg width="190" height="168" xmlns="http://www.w3.org/2000/svg"><g fill-rule="nonzero" fill="none"><path d="M149.221 51.938a5.938 5.938 0 004.75-3.076l10.925-20.069a5.937 5.937 0 00-1.508-7.481A106.27 106.27 0 0088.742.875C23.37 4.438 15.652 54.681 11.875 125.242a5.937 5.937 0 005.938 6.258h130.625a5.938 5.938 0 005.937-5.938V89.939a25.21 25.21 0 00-16.625-24c-5.308-2.779-6.887-3.954-7.125-6.306a2.969 2.969 0 01.689-2.481c1.021-1.247 4.892-4.287 17.907-5.214z" fill="#C03"/><rect fill="#EFEFEF" y="119.625" width="166.25" height="47.5" rx="23.75"/><circle fill="#EFEFEF" cx="166.25" cy="42.438" r="23.75"/><path d="M46.2 41a5.2 5.2 0 01-5.2-5.2C41 24.312 50.312 15 61.8 15a5.2 5.2 0 110 10.4c-5.744 0-10.4 4.656-10.4 10.4a5.2 5.2 0 01-5.2 5.2z" fill="#EC2D2D"/><path d="M154.065 39.323A3.065 3.065 0 01151 36.258C151 29.488 156.488 24 163.258 24a3.065 3.065 0 010 6.129 6.129 6.129 0 00-6.129 6.13 3.065 3.065 0 01-3.064 3.064zM11.065 141.323A3.065 3.065 0 018 138.258C8 131.488 13.488 126 20.258 126a3.065 3.065 0 010 6.129 6.129 6.129 0 00-6.129 6.13 3.065 3.065 0 01-3.064 3.064z" fill="#FFF"/></g></svg>