<svg width="300" height="300" xmlns="http://www.w3.org/2000/svg"><g fill-rule="nonzero" fill="none"><path fill="#F93" d="M0 290h300v10H0z"/><g transform="translate(67 12)"><path fill="#644301" d="M73 212h21v35H73z"/><path fill="#31434B" d="M103.1 281H63.9L59 241h49z"/><path fill="#390" d="M118.588 152h39.53l-49.412-65h24.706L84 37 34.588 87h24.706L9.882 152h39.53L0 217h168z"/><path d="M27.257 206.982a33.47 33.47 0 0 1-14.886-3.707c-1.226-.654-1.721-2.228-1.108-3.524.614-1.295 2.105-1.826 3.339-1.188.737.388 18.162 9.293 26.804-4.368.491-.793 1.349-1.248 2.247-1.19.897.058 1.696.619 2.092 1.469.396.85.327 1.859-.18 2.641-4.042 6.437-10.986 10.18-18.308 9.867ZM79.634 196.986a53.442 53.442 0 0 1-15.967-2.703c-.827-.291-1.443-1.024-1.618-1.924-.174-.9.12-1.83.772-2.439a2.343 2.343 0 0 1 2.388-.515c.157.056 15.758 5.42 24.97.086 3.098-1.782 5.298-4.907 6.018-8.55.33-1.373 1.65-2.207 2.954-1.864 1.304.343 2.099 1.734 1.778 3.11-1.05 5.037-4.118 9.347-8.412 11.814a25.736 25.736 0 0 1-12.883 2.985ZM121.68 185a13.018 13.018 0 0 1-5.228-1.07c-1.293-.624-1.82-2.139-1.18-3.39.641-1.25 2.209-1.764 3.507-1.151a7.46 7.46 0 0 0 5.552.032c3.337-1.895 5.709-5.041 6.55-8.688.46-1.327 1.947-2.045 3.323-1.602 1.376.442 2.12 1.877 1.66 3.205-1.247 5.098-4.754 9.41-9.59 11.79a12.32 12.32 0 0 1-4.593.874ZM39.032 139c-5.979-.073-11.826-1.857-16.917-5.16-1.149-.806-1.46-2.44-.697-3.651.764-1.21 2.315-1.54 3.464-.734 8.31 5.536 18.901 5.537 27.213.002a2.39 2.39 0 0 1 2.506-.188c.807.417 1.34 1.258 1.394 2.204.055.945-.376 1.849-1.129 2.366-4.666 3.36-10.184 5.158-15.834 5.161ZM74.499 80C63.586 80 53.16 70.387 52.72 69.976a2.227 2.227 0 0 1 .011-3.291c.972-.908 2.547-.914 3.526-.013.093.087 9.409 8.658 18.24 8.658 1.382 0 2.502 1.046 2.502 2.335C77 78.955 75.88 80 74.499 80ZM92.502 80c-1.38.001-2.5-1.042-2.502-2.33-.001-1.29 1.117-2.335 2.497-2.336.137 0 13.529-.133 17.766-8.044.618-1.152 2.12-1.62 3.354-1.043 1.235.576 1.736 1.978 1.119 3.13C109.11 79.88 93.176 80 92.502 80ZM73.478 135c-1.367.001-2.477-1.198-2.478-2.68-.001-1.482 1.106-2.684 2.473-2.686 5.177-.099 10.212-1.847 14.478-5.025 1.058-.94 2.619-.774 3.487.372.868 1.146.714 2.838-.344 3.778-5.149 3.974-11.295 6.151-17.616 6.241ZM121.39 129.979c-5.348.247-10.586-1.695-14.67-5.438a2.748 2.748 0 0 1-.72-1.873c-.006-1.123.642-2.128 1.618-2.51.976-.382 2.069-.057 2.728.81 1.288 1.191 9.184 7.553 24.22.342a2.289 2.289 0 0 1 2.431.28c.706.556 1.083 1.478.989 2.417-.094.94-.645 1.753-1.444 2.133-4.746 2.416-9.908 3.724-15.152 3.839Z" fill="#DADCDA"/><circle fill="#C03" cx="62.5" cy="132.5" r="10.5"/><circle fill="#F60" cx="98.5" cy="122.5" r="10.5"/><circle fill="#0CF" cx="54.5" cy="191.5" r="10.5"/><circle fill="#903" cx="108.5" cy="181.5" r="10.5"/><circle fill="#FC0" cx="83.5" cy="76.5" r="10.5"/><path fill="#F93" d="m84 0 7.659 15.47 17.123 2.483-12.391 12.04L99.314 47 84 38.972 68.686 47l2.923-17.007-12.391-12.04 17.123-2.483z"/></g><path d="M262.8 26.5a44.44 44.44 0 0 1-27.8-9.795 44.47 44.47 0 0 1-29.5 9.795 44.39 44.39 0 0 1-31.925-15.435l-2.39-2.785 7.59-6.5 2.39 2.79a33.93 33.93 0 0 0 24.74 11.93 34 34 0 0 0 25.56-10 5 5 0 0 1 7.07 0 34 34 0 0 0 25.56 10 33.93 33.93 0 0 0 24.72-11.945l2.39-2.79 7.59 6.5-2.39 2.785A44.39 44.39 0 0 1 264.5 26.5h-1.7Z" fill="#C03"/><path fill="#F60" d="M185 35h10v10h-10zM200 0h10v10h-10z"/><path fill="#F93" d="M225 30h10v10h-10zM265 0h10v10h-10z"/><path fill="#F60" d="M280 30h10v10h-10z"/><path d="M92.8 26.5A44.44 44.44 0 0 1 65 16.705 44.445 44.445 0 0 1 35.5 26.5 44.39 44.39 0 0 1 3.595 11.04l-2.39-2.785 7.59-6.5 2.39 2.79A33.93 33.93 0 0 0 35.905 16.5c9.546.4 18.82-3.228 25.56-10a5 5 0 0 1 7.07 0 34 34 0 0 0 25.56 10 33.93 33.93 0 0 0 24.72-11.945l2.39-2.79 7.59 6.5-2.39 2.785A44.39 44.39 0 0 1 94.5 26.5h-1.7Z" fill="#C03"/><path fill="#F93" d="M15 35h10v10H15zM30 0h10v10H30z"/><path fill="#F60" d="M55 30h10v10H55zM85 0h10v10H85z"/><path fill="#F93" d="M90 35h10v10H90z"/><path fill="#390" d="M180 245h50v50h-50z"/><path fill="#90F" d="M205 245h10v50h-10z"/><path fill="#90F" d="M180 260h50v10h-50z"/><path fill="#390" d="M80 265h40v30H80z"/><path d="m92.235 284.5-4.47-8.95A13.605 13.605 0 0 0 95 265h10a23.5 23.5 0 0 1-12.765 19.5Z" fill="#90F"/><path d="M107.765 284.5A23.5 23.5 0 0 1 95 265h10a13.615 13.615 0 0 0 7.265 10.54l-4.5 8.96Z" fill="#90F"/><path d="M100 270H90c-8.284 0-15-6.716-15-15 0-8.284 6.716-15 15-15 8.284 0 15 6.716 15 15v10a5 5 0 0 1-5 5Zm-10-20a5 5 0 1 0 0 10h5v-5a5 5 0 0 0-5-5Z" fill="#90F"/><path d="M110 270h-10a5 5 0 0 1-5-5v-10c0-8.284 6.716-15 15-15 8.284 0 15 6.716 15 15 0 8.284-6.716 15-15 15Zm-5-10h5a5 5 0 1 0-5-5v5Z" fill="#90F"/><path fill="#F60" d="M10 240h50v55H10z"/><path fill="#C03" d="M10 262h50v10H10zM35 245H25c-8.284 0-15-6.716-15-15 0-8.284 6.716-15 15-15 8.284 0 15 6.716 15 15v10a5 5 0 0 1-5 5Zm-10-20a5 5 0 1 0 0 10h5v-5a5 5 0 0 0-5-5Z"/><path d="M45 245H35a5 5 0 0 1-5-5v-10c0-8.284 6.716-15 15-15 8.284 0 15 6.716 15 15 0 8.284-6.716 15-15 15Zm-5-10h5a5 5 0 1 0-5-5v5Z" fill="#C03"/><path fill="#C03" d="M30 240h10v55H30z"/><path fill="#F60" d="M250 215h40v80h-40z"/><path fill="#C03" d="M265 217h10v78h-10z"/><path d="M270 220h-10c-8.284 0-15-6.716-15-15 0-8.284 6.716-15 15-15 8.284 0 15 6.716 15 15v10a5 5 0 0 1-5 5Zm-10-20a5 5 0 1 0 0 10h5v-5a5 5 0 0 0-5-5Z" fill="#C03"/><path d="M280 220h-10a5 5 0 0 1-5-5v-10c0-8.284 6.716-15 15-15 8.284 0 15 6.716 15 15 0 8.284-6.716 15-15 15Zm-5-10h5a5 5 0 1 0-5-5v5ZM250 250h40v10h-40z" fill="#C03"/></g></svg>